name D:\school\WTK\thesis\model\3dpredictsim\Results\MidTarsalJoint\Fal_s1_bCst_PF_Gefen2002_ls150_MT_nl_Gefen2002_MTP_T1_spx10_PIM_w1e+03_ig23.mot
datacolumns 128
datarows 4
range 0.00000000 0.03198598
endheader
time	pelvis_tilt	pelvis_list	pelvis_rotation	pelvis_tx	pelvis_ty	pelvis_tz	hip_flexion_l	hip_adduction_l	hip_rotation_l	hip_flexion_r	hip_adduction_r	hip_rotation_r	knee_angle_l	knee_angle_r	ankle_angle_l	ankle_angle_r	subtalar_angle_l	subtalar_angle_r	mtj_angle_l	mtj_angle_r	mtp_angle_l	mtp_angle_r	lumbar_extension	lumbar_bending	lumbar_rotation	arm_flex_l	arm_add_l	arm_rot_l	arm_flex_r	arm_add_r	arm_rot_r	elbow_flex_l	elbow_flex_r	pro_sup_l	pro_sup_r	glut_med1_l/activation	glut_med2_l/activation	glut_med3_l/activation	glut_min1_l/activation	glut_min2_l/activation	glut_min3_l/activation	semimem_l/activation	semiten_l/activation	bifemlh_l/activation	bifemsh_l/activation	sar_l/activation	add_long_l/activation	add_brev_l/activation	add_mag1_l/activation	add_mag2_l/activation	add_mag3_l/activation	tfl_l/activation	pect_l/activation	grac_l/activation	glut_max1_l/activation	glut_max2_l/activation	glut_max3_l/activation	iliacus_l/activation	psoas_l/activation	quad_fem_l/activation	gem_l/activation	peri_l/activation	rect_fem_l/activation	vas_med_l/activation	vas_int_l/activation	vas_lat_l/activation	med_gas_l/activation	lat_gas_l/activation	soleus_l/activation	tib_post_l/activation	flex_dig_l/activation	flex_hal_l/activation	tib_ant_l/activation	per_brev_l/activation	per_long_l/activation	per_tert_l/activation	ext_dig_l/activation	ext_hal_l/activation	ercspn_l/activation	intobl_l/activation	extobl_l/activation	glut_med1_r/activation	glut_med2_r/activation	glut_med3_r/activation	glut_min1_r/activation	glut_min2_r/activation	glut_min3_r/activation	semimem_r/activation	semiten_r/activation	bifemlh_r/activation	bifemsh_r/activation	sar_r/activation	add_long_r/activation	add_brev_r/activation	add_mag1_r/activation	add_mag2_r/activation	add_mag3_r/activation	tfl_r/activation	pect_r/activation	grac_r/activation	glut_max1_r/activation	glut_max2_r/activation	glut_max3_r/activation	iliacus_r/activation	psoas_r/activation	quad_fem_r/activation	gem_r/activation	peri_r/activation	rect_fem_r/activation	vas_med_r/activation	vas_int_r/activation	vas_lat_r/activation	med_gas_r/activation	lat_gas_r/activation	soleus_r/activation	tib_post_r/activation	flex_dig_r/activation	flex_hal_r/activation	tib_ant_r/activation	per_brev_r/activation	per_long_r/activation	per_tert_r/activation	ext_dig_r/activation	ext_hal_r/activation	ercspn_r/activation	intobl_r/activation	extobl_r/activation	
          0.00000000	         -2.92969502	          0.46517083	          3.28552911	          0.00000000	          0.94186171	         -0.00168350	        -13.28032110	          1.02397892	          5.43586237	         26.41602606	          1.14495342	         -0.41823755	        -13.49904671	        -12.15672108	          3.51196985	          7.65425188	         19.02971475	          1.64994789	         -4.30643231	         -0.29329367	          9.09880657	         -1.11983393	         -0.12173132	         -1.41629476	         -1.42594321	          2.13665762	        -13.46168873	          9.38087373	         -8.42444461	        -13.44970710	          6.64155487	         27.67156135	         18.94331236	         86.51662706	         86.51662706	          0.16575885	          0.12711620	          0.08167265	          0.14373104	          0.13925606	          0.11328600	          0.05000086	          0.05000013	          0.05000011	          0.05000135	          0.06004134	          0.07834398	          0.05000464	          0.05000156	          0.05000241	          0.05000051	          0.19632704	          0.07120906	          0.05000393	          0.05000156	          0.05000064	          0.05000069	          0.17591918	          0.54249833	          0.05000053	          0.06934671	          0.06946242	          0.25076471	          0.06192856	          0.06167530	          0.06194543	          0.29909160	          0.30896618	          0.22879934	          0.12516827	          0.06134688	          0.08138694	          0.05000000	          0.27500338	          0.21398951	          0.05888501	          0.05888501	          0.05888502	          0.05616511	          0.06377358	          0.09618520	          0.05888498	          0.05888499	          0.05000015	          0.05888505	          0.05888503	          0.05888458	          0.13732039	          0.07057258	          0.13232633	          0.05000022	          0.05000013	          0.15677161	          0.26978320	          0.25944345	          0.21313818	          0.13187418	          0.05000011	          0.05000300	          0.06708251	          0.05000046	          0.05238597	          0.15271499	          0.08167189	          0.05848787	          0.42895635	          0.23602225	          0.11000671	          0.05000088	          0.08906767	          0.08930869	          0.08005706	          0.06142337	          0.06050500	          0.05890689	          0.05000115	          0.06934869	          0.06934899	          0.50681999	          0.05888519	          0.15604723	          0.16053473	          0.47858372	          0.17987243	          0.05000001	          0.08659675	          0.07885700	
          0.01066199	         -2.92444637	          0.55979271	          3.35515484	          0.01594860	          0.94158528	         -0.00146237	        -13.51762798	          0.99947482	          5.47251734	         25.86343999	          1.32601235	         -0.26206967	        -14.51952333	        -12.67636992	          2.74712994	          7.06764858	         19.37921025	          1.53143368	         -6.09283974	         -0.34669213	         12.15663540	         -1.09918596	          0.05502083	         -1.29404289	         -1.47987075	          1.89939629	        -13.47233836	          9.61576352	         -9.15584189	        -13.45590290	          6.56385040	         28.35528722	         18.76798975	         86.51662706	         86.51662706	          0.14074798	          0.10793602	          0.06934931	          0.12204392	          0.11824415	          0.09619263	          0.05003087	          0.05536505	          0.05888413	          0.05000005	          0.05098195	          0.15148474	          0.13447763	          0.10071536	          0.05888726	          0.08736647	          0.16670386	          0.06046523	          0.05888466	          0.05002254	          0.05888466	          0.05888586	          0.14937524	          0.47289187	          0.05888516	          0.05888498	          0.05898148	          0.21292753	          0.08963851	          0.08849420	          0.08711767	          0.25396276	          0.27638032	          0.20102558	          0.13893419	          0.09008598	          0.12710770	          0.16333540	          0.26185930	          0.20398145	          0.05000003	          0.05000002	          0.05000004	          0.06033213	          0.07381790	          0.08167214	          0.05000000	          0.05000003	          0.10950340	          0.05000006	          0.05000005	          0.05000005	          0.11660053	          0.05992416	          0.11236000	          0.05000257	          0.06934911	          0.13311686	          0.29571490	          0.34627153	          0.24139988	          0.13517078	          0.05000038	          0.08167146	          0.13195202	          0.05000369	          0.10118351	          0.16628277	          0.06934872	          0.06934880	          0.53943022	          0.20040955	          0.09340816	          0.05888515	          0.07563100	          0.08076326	          0.06878377	          0.06934880	          0.06934885	          0.06934883	          0.05888535	          0.05888509	          0.05888628	          0.43034747	          0.05000018	          0.18096772	          0.13631215	          0.43440137	          0.18505343	          0.05000000	          0.07353041	          0.06695849	
          0.02132398	         -2.91420286	          0.61377732	          3.40186623	          0.03199933	          0.94113535	         -0.00127301	        -13.62312523	          0.96638869	          5.48944539	         25.27053389	          1.42155018	         -0.06459069	        -15.77962500	        -13.34215861	          1.88101525	          6.41590892	         19.65833755	          1.41641820	         -7.73450601	         -0.48050834	         15.09737337	         -1.01899109	          0.23652352	         -1.11948966	         -1.52540061	          1.62083389	        -13.47954764	          9.82606740	         -9.86841289	        -13.48005173	          6.49766185	         29.03948533	         18.57744942	         86.51662706	         86.51662706	          0.21910410	          0.09165002	          0.05888542	          0.18372957	          0.10040615	          0.08167861	          0.05000086	          0.05000013	          0.05000011	          0.05888530	          0.06935601	          0.12862765	          0.11418671	          0.08551876	          0.05000211	          0.07418405	          0.14155091	          0.05134210	          0.05000047	          0.05000152	          0.05000075	          0.05000089	          0.12683650	          0.49702866	          0.05000021	          0.05000044	          0.05008202	          0.18079950	          0.07611323	          0.07514158	          0.07397275	          0.21564303	          0.23467808	          0.17069339	          0.12788417	          0.09882897	          0.11433769	          0.13869018	          0.22234811	          0.17320327	          0.33286906	          0.15996439	          0.17963126	          0.08002070	          0.06267972	          0.06934886	          0.27814820	          0.28120651	          0.32234831	          0.44470380	          0.32493434	          0.31124475	          0.10145333	          0.07196538	          0.10236884	          0.05138930	          0.05888537	          0.11303125	          0.25109533	          0.29402364	          0.20497598	          0.16812652	          0.05000022	          0.06934853	          0.11204226	          0.05000032	          0.15460995	          0.19359843	          0.05888498	          0.05888498	          0.45803711	          0.17017037	          0.16653119	          0.05000016	          0.07602871	          0.09565213	          0.07128780	          0.05888496	          0.05888500	          0.05888498	          0.05000032	          0.05000035	          0.05000117	          0.59109530	          0.22175094	          0.15366209	          0.49514963	          0.57468240	          0.35804927	          0.05885981	          0.07528787	          0.05685532	
          0.03198598	         -2.90063090	          0.64160286	          3.42185932	          0.04795041	          0.94062706	         -0.00105688	        -13.55406436	          0.94136932	          5.50489341	         24.72400425	          1.50478992	          0.11343374	        -17.32991049	        -14.03736008	          0.92265492	          5.54093627	         19.84134626	          1.32418902	         -9.11576640	         -0.46635932	         17.50389397	         -0.96819750	          0.40546865	         -0.91558607	         -1.56376986	          1.34496346	        -13.48965096	         10.04225246	        -10.51504587	        -13.50579610	          6.44167416	         29.67315805	         18.33920371	         86.51662706	         86.51662706	          0.18604411	          0.07782124	          0.05000041	          0.15600717	          0.08525620	          0.06935440	          0.05015772	          0.05000143	          0.05000152	          0.05000038	          0.05889116	          0.17959539	          0.13110344	          0.20564313	          0.05355330	          0.12851648	          0.12019275	          0.05000249	          0.05000298	          0.05000439	          0.05000381	          0.05011312	          0.10769851	          0.46828032	          0.05000026	          0.05000074	          0.05000011	          0.15351918	          0.07900061	          0.08096543	          0.08502843	          0.18310525	          0.19926817	          0.14493794	          0.12313444	          0.10162139	          0.11270725	          0.28047370	          0.18879865	          0.14706913	          0.28264339	          0.13582782	          0.15252723	          0.10399839	          0.05322216	          0.05888501	          0.37042955	          0.39483623	          0.38215628	          0.42456935	          0.45218401	          0.33370126	          0.08614534	          0.07837730	          0.08692273	          0.05888481	          0.05000049	          0.09597630	          0.21320828	          0.24965933	          0.18469239	          0.18669844	          0.05000034	          0.05888487	          0.09513664	          0.24130411	          0.21475298	          0.21780579	          0.05000005	          0.05000005	          0.38892518	          0.14449388	          0.14140389	          0.05000003	          0.20740788	          0.21593580	          0.18299524	          0.05000001	          0.05000004	          0.05000000	          0.05000002	          0.05000020	          0.05000013	          0.68183829	          0.20849052	          0.16261519	          0.66327977	          0.60513459	          0.41569065	          0.07242979	          0.06392790	          0.05000003	
